<svg xmlns="http://www.w3.org/2000/svg" viewBox="0 0 300 62.7"><path d="M0 56.91c7 .42 17.74.54 17.33-9.13V19.91H2v-5.47h21.33v33.34c.44 12.81-13 15.93-23.33 14.66zM14.67 4.18c-.23-5.57 10.23-5.57 10 0 .23 5.39-10.27 5.45-10 0zM30.13 42.11h6.34c1.46 5.47 11.22 5.27 15 2.83 4-3.37 1.92-8.79-4.13-9.3-4.18-.55-11.11-1.28-13.6-4.2C20.46 14.49 55.81 5.57 59.4 23h-6.33c-1.48-5.05-10.49-4.72-14-2.6-3.83 3-1.64 8.81 3.64 8.74 4.31.55 11.74 1.43 14.16 4.26 13.71 18.07-23.48 26.7-26.74 8.71zM64.2 51.11l13.27-18.8L65 14.44h7.2c.93 1.68 8.54 12.31 8.73 14h.27c.16-1.62 7.85-12.4 8.73-14h7.14L84.6 32.24l13.2 18.87h-7.2c-1.11-1.88-9-13.11-9.47-15h-.26c-.34 1.84-8.48 13.19-9.54 15zM99.67 26.44h26.66v5.34H99.67zM131.47 42.11h6.33c1.47 5.47 11.23 5.27 15 2.83 4-3.37 1.92-8.79-4.13-9.3-4.19-.55-11.12-1.28-13.6-4.2-13.27-17 22.08-25.87 25.66-8.4h-6.33c-1.48-5.05-10.48-4.72-14-2.6-3.83 3-1.65 8.81 3.63 8.74 4.32.55 11.75 1.43 14.17 4.26 13.71 18.03-23.48 26.66-26.73 8.67zM158.33 7.91V2.44h18.14c.52 2.11-1.37 41.63 1.33 41.84 1.88 2.49 11.85 1 14.53 1.36v5.47c-8.38.16-22.52 1.62-21.86-10.67V7.91zM197.2 40.44c-.39-12.77 15.11-11.57 23.93-11.33 2.5-10.46-12.28-14-16.8-5.93h-6c1.92-10.34 18.13-11.81 24.94-6.24 6.94 4.26 2.81 27.57 3.86 34.17h-5.46v-7h-.54c-3.19 11.82-24.97 9.56-23.93-3.67zm6-.13c.69 11.42 21.2 7.68 17.93-6.53-5.52.48-18.33-2.53-17.93 6.53zM248.2 51.78c-16 .93-16.52-18.4-13.63-29.6 4.87-13 27.36-10.38 28.3 3.93h-6c-1.36-10.26-18.38-8.78-17.34 2 .3 4.15-1.16 13 2.3 15.93 4.36 4.6 14.44 2.41 15-4.6h6c-1.06 7.78-6.83 12.4-14.63 12.34zM268.53 3.11h6v26.67h7.2l11.2-15.34h6.87l-13 17.74L300 51.11h-7l-11.2-16h-7.27v16h-6z" fill="#333"/></svg>
