<svg xmlns="http://www.w3.org/2000/svg" viewBox="0 0 300 215"><path d="M75.87 3.29A23.36 23.36 0 0065.33.79a24.3 24.3 0 00-7.72 1.27 23.72 23.72 0 00-13.82 12L2.56 97.33a23.56 23.56 0 001.28 23.54 23.13 23.13 0 0020.08 11.29 24.09 24.09 0 0022.44-15.36l.13-.3 40.2-81.12A24 24 0 0075.87 3.29z" fill="#36c5f0"/><path d="M256.27 200.89a10.15 10.15 0 01.4-.94l40.77-82.28a23.55 23.55 0 00-1.28-23.53 23.11 23.11 0 00-20.08-11.3H276a24.06 24.06 0 00-22.36 15.36l-.13.3-40.2 81.12c-7.07 14.43.76 26.51 11 31.62s24.59 4 31.87-10.38z" fill="#ecb22e"/><path d="M159.73 30.3a23.61 23.61 0 00-12.33 13.55L107.54 155a23.94 23.94 0 0045.06 16.18L192.46 60A23.95 23.95 0 00178 29.41a23.21 23.21 0 00-8-1.4 24.2 24.2 0 00-10.27 2.29z" fill="#999"/><path d="M260.68 70.83a37.69 37.69 0 0122.56-2.67l-27.91-55A23.67 23.67 0 00241.4 1.2a24.36 24.36 0 00-7.51-1.2 23.33 23.33 0 00-10.72 2.6 23.95 23.95 0 00-10.54 32.19l27.81 54.82a42.59 42.59 0 0120.24-18.78z" fill="#2eb67d"/><path d="M39.31 144.17a37.57 37.57 0 01-22.55 2.67l27.91 55a23.94 23.94 0 0042.7-21.67l-27.81-54.78a42.57 42.57 0 01-20.25 18.78z" fill="#e01e5a"/></svg>
