<svg xmlns="http://www.w3.org/2000/svg" viewBox="0 0 240 30"><rect x=".5" y=".5" width="239" height="29" rx="4.5" fill="#fff"/><path d="M235 1a4 4 0 0 1 4 4v20a4 4 0 0 1-4 4H5a4 4 0 0 1-4-4V5a4 4 0 0 1 4-4h230m0-1H5a5 5 0 0 0-5 5v20a5 5 0 0 0 5 5h230a5 5 0 0 0 5-5V5a5 5 0 0 0-5-5z" fill="#666"/><path d="M12.65 16.2v4.14h-1.54v-10.2h1.74a7.92 7.92 0 0 1 1.94.17A2.59 2.59 0 0 1 16 11a3.09 3.09 0 0 1-.06 4.39 3.74 3.74 0 0 1-2.53.82zm0-1.43h.57c1.07 0 2.13-.41 2.12-1.63s-1.12-1.58-2.18-1.58h-.51zM18.13 13.9h1.49v.58a2.84 2.84 0 0 1 .73-.59 2.09 2.09 0 0 1 2 .22l-.68 1.36c-1.31-.94-2 .36-2 1.53v3.34h-1.54zM29.06 17.47h-4.62a2 2 0 0 0 .56 1.26 1.69 1.69 0 0 0 2.09.2 3.5 3.5 0 0 0 .81-1l1.26.7a4.56 4.56 0 0 1-.62.85 3.18 3.18 0 0 1-.69.59 2.81 2.81 0 0 1-.8.33 3.37 3.37 0 0 1-3.25-.82 3.9 3.9 0 0 1 0-4.94 3.18 3.18 0 0 1 4.5 0 3.54 3.54 0 0 1 .82 2.49zm-1.53-1.21a1.53 1.53 0 0 0-2.44-.87 1.31 1.31 0 0 0-.33.37 1.62 1.62 0 0 0-.22.5zM31.48 13.9l1.67 3.62 1.66-3.62h1.67l-3.34 6.88-3.32-6.88zM37.26 11.23a1 1 0 1 1 1.65.69 1 1 0 0 1-1.65-.69zM39 13.9v6.44h-1.51V13.9zM46.72 17.47h-4.61a2 2 0 0 0 .51 1.26 1.69 1.69 0 0 0 2.09.2 3.5 3.5 0 0 0 .81-1l1.26.7a4.56 4.56 0 0 1-.62.85 3.18 3.18 0 0 1-.69.59 2.81 2.81 0 0 1-.8.33 3.37 3.37 0 0 1-3.25-.82 3.9 3.9 0 0 1 0-4.94 3.19 3.19 0 0 1 4.51 0 3.59 3.59 0 0 1 .82 2.49zm-1.53-1.21a1.53 1.53 0 0 0-2.44-.87 1.31 1.31 0 0 0-.33.37 1.62 1.62 0 0 0-.22.5zM49.15 13.9l1.69 3.68 1.81-4.27 1.84 4.27 1.66-3.68h1.67l-3.37 6.92-1.8-4.14-1.81 4.14-3.36-6.92zM62.77 11.23a1 1 0 1 1 1.66.69 1 1 0 0 1-1.66-.69zm1.72 2.67v6.44H63V13.9zM66.37 13.9h1.49v.6a2.46 2.46 0 0 1 3.51-.07 2.92 2.92 0 0 1 .55 2v3.94h-1.5v-3.6a2.4 2.4 0 0 0-.26-1.31 1.34 1.34 0 0 0-2 .12 3.36 3.36 0 0 0-.31 1.68v3.11h-1.48zM84 11.66l-1.24.74a2.28 2.28 0 0 0-.67-.8 1.75 1.75 0 0 0-1.92.15c-.93.79-.17 1.75.69 2.11l1 .41a4.42 4.42 0 0 1 1.81 1.23 3.19 3.19 0 0 1-.36 4.1 3.43 3.43 0 0 1-4.54.14 3.59 3.59 0 0 1-1.06-2.22l1.56-.34a2.59 2.59 0 0 0 .37 1.24 1.74 1.74 0 0 0 2.58.18 1.79 1.79 0 0 0 .39-1.77 2.28 2.28 0 0 0-1.37-1.19l-1-.41c-1.83-.77-3-3-1.22-4.51a3.22 3.22 0 0 1 4.98.94zM87.35 9.18v11.16h-1.49V9.18zM94 13.9h1.49v6.44H94v-.67a2.89 2.89 0 0 1-4.18-.11 3.82 3.82 0 0 1 0-4.87 2.83 2.83 0 0 1 4.18 0zm-3.53 3.2a2.2 2.2 0 0 0 .5 1.51 1.77 1.77 0 0 0 2.61 0 2.42 2.42 0 0 0 0-3 1.76 1.76 0 0 0-2.6 0 2.12 2.12 0 0 0-.53 1.49zM102.36 14.18v2a3.67 3.67 0 0 0-.91-.86c-2-1.22-3.78 1.76-2.35 3.32a2 2 0 0 0 2.33.35 3.78 3.78 0 0 0 .93-.88v2a3.73 3.73 0 0 1-4.31-.5 3.42 3.42 0 0 1 0-4.84 3.71 3.71 0 0 1 4.31-.59zM105.29 9.18V16l2.09-2.08h2l-2.8 2.71 3 3.73h-1.93l-2.12-2.72-.24.24v2.48h-1.49V9.18zM115 20.34v-10.2h1.54a7.11 7.11 0 0 1 1.63.15 2.52 2.52 0 0 1 1 .54 2.87 2.87 0 0 1 .68 1 2.62 2.62 0 0 1-.58 3 2.44 2.44 0 0 1 1.28 1 2.86 2.86 0 0 1-.37 3.62 2.77 2.77 0 0 1-1.14.71 6.65 6.65 0 0 1-1.74.19zm1.54-5.82h.46a1.81 1.81 0 0 0 1.26-.38 1.69 1.69 0 0 0 0-2.22 1.71 1.71 0 0 0-1.19-.37h-.55zm0 4.37h1a2.33 2.33 0 0 0 1.53-.41 1.49 1.49 0 0 0 0-2.23 2.55 2.55 0 0 0-1.73-.44h-.78zM124.21 9.18v11.16h-1.49V9.18zM125.79 17.08a3.2 3.2 0 0 1 1-2.38 3.54 3.54 0 0 1 4.88 0 3.45 3.45 0 0 1 0 4.84 3.53 3.53 0 0 1-4.89 0 3.33 3.33 0 0 1-.99-2.46zm1.52 0a2.15 2.15 0 0 0 .52 1.53 2 2 0 0 0 2.79 0 2.38 2.38 0 0 0 0-3 1.94 1.94 0 0 0-3.31 1.49zM139.24 14.18v2a3.67 3.67 0 0 0-.91-.86c-2-1.22-3.78 1.76-2.35 3.32a2 2 0 0 0 2.33.35 3.61 3.61 0 0 0 .93-.88v2a3.73 3.73 0 0 1-4.31-.5 3.42 3.42 0 0 1 0-4.84 3.67 3.67 0 0 1 4.31-.59zM142.17 9.18V16l2.1-2.08h2l-2.79 2.71 3 3.73h-1.93l-2.13-2.72-.24.24v2.48h-1.49V9.18zM153.43 14.21l4-4.07h2.06l-4.62 4.62 4.64 5.58h-2.06l-3.68-4.54-.31.32v4.22h-1.54v-10.2h1.54zM160.35 11.23a1 1 0 1 1 1.65.69 1 1 0 0 1-1.65-.69zm1.71 2.67v6.44h-1.49V13.9zM165.48 15.29v5.05H164v-5.05h-.63V13.9h.63v-2.36h1.49v2.36h1.15v1.39zM172.11 20.34v-10.2h1.53a7 7 0 0 1 1.63.15 2.52 2.52 0 0 1 1 .54 2.74 2.74 0 0 1 .68 1 2.62 2.62 0 0 1-.58 3 2.44 2.44 0 0 1 1.28 1 2.86 2.86 0 0 1-.37 3.62 2.77 2.77 0 0 1-1.14.71 6.55 6.55 0 0 1-1.74.19zm1.54-5.82h.48a1.81 1.81 0 0 0 1.26-.38 1.68 1.68 0 0 0 0-2.22 1.7 1.7 0 0 0-1.19-.37h-.54zm0 4.37h.95a2.3 2.3 0 0 0 1.53-.41 1.49 1.49 0 0 0 0-2.23 2.52 2.52 0 0 0-1.72-.44h-.78zM181.31 13.9v3.7c0 2 2.53 2.06 2.53 0v-3.7h1.49v3.73a4.11 4.11 0 0 1-.2 1.34 2.18 2.18 0 0 1-.64.9 3.07 3.07 0 0 1-3.82 0A2.33 2.33 0 0 1 180 19a3.81 3.81 0 0 1-.18-1.34V13.9zM187 11.23a1 1 0 1 1 1.65.69 1 1 0 0 1-1.65-.69zm1.71 2.67v6.44h-1.51V13.9zM192.06 9.18v11.16h-1.49V9.18zM198.69 9.18h1.49v11.16h-1.49v-.67a2.89 2.89 0 0 1-4.18-.11 3.8 3.8 0 0 1 0-4.86 2.81 2.81 0 0 1 4.18 0zm-3.53 7.92a2.25 2.25 0 0 0 .5 1.51 1.77 1.77 0 0 0 2.61 0 2.39 2.39 0 0 0 0-3 1.76 1.76 0 0 0-2.6 0 2.12 2.12 0 0 0-.51 1.49zM207.92 17.47h-4.61a1.91 1.91 0 0 0 .52 1.26 1.68 1.68 0 0 0 2.08.2 3.67 3.67 0 0 0 .82-1l1.25.7a4.54 4.54 0 0 1-.61.85 3.48 3.48 0 0 1-.7.59 2.7 2.7 0 0 1-.8.33 3.35 3.35 0 0 1-3.24-.82 3.9 3.9 0 0 1 0-4.94 3.19 3.19 0 0 1 4.51 0 3.54 3.54 0 0 1 .82 2.49zm-1.52-1.21a1.52 1.52 0 0 0-2-1.11 1.5 1.5 0 0 0-.77.61 1.88 1.88 0 0 0-.21.5zM209.55 13.9H211v.58a2.83 2.83 0 0 1 .72-.59 2.1 2.1 0 0 1 2 .22l-.68 1.36c-1.31-.94-2 .36-2 1.53v3.34h-1.49zM219.23 9.18l9.66 5.57-9.66 5.59z" fill="#333"/></svg>